<svg width="375" height="271" viewBox="0 0 375 271" fill="none" xmlns="http://www.w3.org/2000/svg">
<rect y="23" width="380" height="248" fill="#FAE9E0"/>
<path d="M254.018 189.069C200.461 226.337 139.342 203.666 115.477 187.672H115.012C114.702 187.051 113.989 185.436 113.617 183.945C113.365 182.934 111.1 180.721 108.944 178.821M254.018 189.069C233.098 202.579 176.565 220.933 117.801 186.274M254.018 189.069C202.321 224.101 141.667 205.84 117.801 192.33V186.274M254.018 189.069L253.554 188.604M117.801 186.274L114.547 183.479L110.828 179.287L108.944 178.821M290.746 183.013L285.632 186.74C283.772 181.895 263.162 185.653 253.089 188.138L253.554 188.604M290.746 183.013C295.705 183.79 304.414 186.927 299.579 193.262C293.69 197.92 275.311 208.076 248.905 211.43C225.504 215.467 168.569 221.12 128.029 211.43C91.7668 204.908 36.0713 188.976 103.389 177.423L106.179 176.492M290.746 183.013C281.82 180.405 270.91 175.405 266.571 173.231M106.179 176.492C106.926 177.091 107.923 177.921 108.944 178.821M106.179 176.492L98.5019 165.777M93.1615 158.324C51.0102 162.361 -18.4156 179.752 41.0922 217.02C75.3402 235.964 174.985 265.375 299.579 231.461C346.844 214.536 409.018 176.119 279.588 157.858M93.1615 158.324C65.2672 111.366 64.1825 55.8377 67.1269 33.943M93.1615 158.324L98.5019 165.777M279.588 157.858L291.211 132.236M279.588 157.858L273.08 165.544M253.554 188.604L266.571 173.231M266.571 173.231L273.08 165.544M285.632 183.479L267.501 176.026L260.527 184.411L275.404 181.616L277.264 182.548H278.658L268.431 178.821L266.571 179.752L265.176 181.616L268.431 181.15M291.211 132.236C318.33 129.286 368.943 113.416 354.438 73.5399C350.409 64.3782 335.656 48.5706 308.877 58.6328M291.211 132.236C292.633 129.786 293.986 126.781 295.265 123.385M308.877 58.6328C308.563 61.4191 308.143 64.7377 307.623 68.4156M308.877 58.6328L307.623 68.4156M295.265 123.385C295.785 122.003 296.294 120.556 296.79 119.056M295.265 123.385C296.429 123.177 297.836 122.899 299.366 122.561M296.79 119.056L318.175 115.932C318.485 114.534 318.547 112.578 316.316 115.932C314.511 118.644 305.838 121.134 299.366 122.561M296.79 119.056C297.126 118.038 297.456 116.995 297.781 115.932M297.781 115.932L299.366 122.561M297.781 115.932C301.617 103.361 304.63 87.8114 306.649 74.9374M297.781 115.932C305.483 115.665 317.592 113.416 326.544 107.353M306.649 74.9374C330.53 69.7199 337.611 80.5275 338.166 86.5835C338.166 92.1845 336.477 96.7917 333.733 100.559M306.649 74.9374C307.005 72.6702 307.33 70.4859 307.623 68.4156M307.623 68.4156C312.535 67.4839 322.638 65.9 323.754 67.018M307.623 68.4156V33.943M333.733 100.559C336.529 103.509 339.214 108.851 327.591 106.615M333.733 100.559C332.964 101.614 332.113 102.604 331.193 103.531M327.591 106.615C328.875 105.674 330.084 104.648 331.193 103.531M327.591 106.615C327.247 106.867 326.898 107.113 326.544 107.353M331.193 103.531C333.362 105.516 335.47 109.061 326.544 107.353M307.623 33.943C283.188 61.521 215.215 65.6205 184.283 64.2229C157.628 65.7758 96.8808 61.8937 67.1269 33.943M307.623 33.943C308.09 31.1408 307.211 27.7153 304.214 24.1603M67.1269 33.943C65.9809 31.2931 66.6 27.8293 70.4516 24.1603M76.425 81.4592C84.6383 116.398 109.247 186.74 141.976 188.604M304.214 24.1603C294.59 12.7436 263.127 -0.00791271 184.283 2.26557C110.295 4.39902 80.1422 14.9291 70.4516 24.1603M304.214 24.1603C302.843 25.9448 300.808 28.0065 298.069 30.2163M70.4516 24.1603C71.546 26.1268 72.921 27.9885 74.5421 29.7504M74.5421 29.7504C80.9036 24.7814 96.2299 15.3092 106.644 17.1726M74.5421 29.7504C81.0721 36.8476 91.5949 42.3248 103.854 46.5032M152.204 10.1849C159.643 9.25324 175.822 7.5762 181.028 8.32155M191.721 8.32155C201.019 8.16627 219.801 8.32155 220.545 10.1849M103.854 46.5032C130.079 55.4415 164.251 58.4367 184.283 58.6328C223.119 58.6328 251.589 52.4304 271.22 44.8589M103.854 46.5032C124.93 38.1029 187.909 26.0135 271.22 44.8589M271.22 44.8589C283.508 40.1193 292.333 34.8433 298.069 30.2163M273.08 165.544C285.942 165.622 312.596 167.081 316.316 172.299M98.5019 165.777C82.9296 166.088 50.9482 168.665 47.6009 176.492M69.4514 200.716C81.5389 208.945 114.64 225.033 150.345 223.542M230.308 221.213C246.425 219.349 280.518 214.225 287.956 208.635M264.246 16.2409C274.242 18.1043 295.001 23.5081 298.069 30.2163M294 60.4962C294.155 78.8194 288.049 126.273 262.387 169.504M248.905 183.479L256.343 175.56M111.758 183.013L96.4158 187.206C95.9509 187.827 95.3931 188.976 96.8807 188.604C98.3684 188.231 108.038 185.964 112.688 184.877L111.758 183.013Z" stroke="#2D635E" stroke-width="4"/>
</svg>
