<svg width="375" height="324" viewBox="0 0 375 324" fill="none" xmlns="http://www.w3.org/2000/svg">
<rect y="18" width="375" height="287" fill="#E3EBE7"/>
<path d="M89.6087 11.3084C95.1821 7.55052 119.795 0.48575 173.661 2.28952C209.596 1.69777 269.23 2.03783 278.499 6.61111M89.6087 11.3084C84.186 13.7644 78.7633 41.5216 78.7633 40.1688M89.6087 11.3084L95.9352 11.6372M273.529 11.3084L266.298 11.881M273.529 11.3084C279.833 9.39043 281.003 7.84636 278.499 6.61111M273.529 11.3084H280.533M245.059 13.5631C216.138 15.0663 153.235 17.1707 132.99 13.5631M245.059 13.5631C208.908 4.18351 155.284 9.65495 132.99 13.5631M245.059 13.5631L227.888 12.2103C200.021 11.3084 145.191 10.2261 148.807 13.1122C152.422 15.9982 203.485 9.95558 203.485 9.95558M245.059 13.5631L256.809 12.6326M132.99 13.5631L115.367 12.6471M78.7633 40.1688C81.6253 40.6197 87.2589 41.251 86.8974 40.1688M78.7633 40.1688L77.7981 39.9623C74.3699 39.2293 70.7581 39.7808 70.2125 43.2438V43.2438C69.388 48.4771 74.0388 52.972 79.2617 53.8602C80.7582 54.1147 82.249 54.3639 83.7342 54.6079M95.9352 11.6372C92.772 20.6968 86.5359 39.0865 86.8974 40.1688M95.9352 11.6372L109.944 12.3653M86.8974 40.1688C88.861 40.4684 90.8193 40.758 92.772 41.0377M288.441 40.1688L296.575 39.2669M288.441 40.1688C290.249 40.1688 283.922 20.9285 280.533 11.3084M288.441 40.1688C286.675 40.5286 284.714 40.8973 282.566 41.2691M265.846 43.7017C268.892 43.3278 271.758 42.9438 274.432 42.5561M265.846 43.7017C265.244 33.7439 266.118 19.5739 274.432 42.5561M265.846 43.7017C253.402 45.229 237.948 46.5864 220.205 47.3321M274.432 42.5561C277.38 42.1287 280.096 41.6968 282.566 41.2691M268.106 33.4046C267.955 35.0581 267.744 38.7257 268.106 40.1688C268.462 41.5914 270.019 39.0403 270.785 37.5276C270.805 37.4872 270.802 37.4399 270.777 37.4023V37.4023C270.691 37.2736 270.493 37.3835 270.558 37.5243L272.173 41.0706L270.828 38.1617C269.918 36.1958 268.857 34.3038 267.654 32.5027V32.5027M256.809 12.6326L261.328 18.5235M256.809 12.6326L266.298 11.881M261.328 18.5235C259.52 15.7486 259.43 12.6999 266.298 11.881M261.328 18.5235C261.779 19.8763 265.937 11.6176 266.298 11.881M287.537 11.3084L278.499 6.61111M287.537 11.3084C291.152 19.8763 298.021 37.4631 296.575 39.2669M287.537 11.3084H280.533M296.575 39.2669H298.221C300.996 39.2669 302.559 38.6181 304.127 40.9072V40.9072C307.589 45.9584 301.993 53.5878 296.047 55.0518C294.915 55.3304 293.735 55.6091 292.508 55.8867M83.7342 54.6079C85.5417 73.3942 88.705 110.967 86.8974 110.967M83.7342 54.6079C85.0946 54.8314 86.4503 55.0505 87.8012 55.2653M86.8974 110.967C84.9392 110.666 81.0228 111.147 81.0228 115.476L92.992 224.679C93.4208 228.592 95.8217 231.894 99.0985 234.074V234.074M86.8974 110.967L83.657 113.841C83.1313 114.307 82.8304 114.977 82.8304 115.679V116.454C82.8304 117.193 83.3594 117.827 84.087 117.959L84.2457 117.988C85.5401 118.223 86.4636 116.764 85.6979 115.694L85.6229 115.59C85.5692 115.515 85.5024 115.45 85.4256 115.399V115.399C84.9086 115.055 84.9989 114.27 85.5804 114.053L87.1872 113.451C87.5698 113.308 87.999 113.37 88.326 113.614L88.5513 113.783C89.0796 114.178 89.0796 114.97 88.5513 115.366V115.366C88.1307 115.681 88.0298 116.269 88.3217 116.706L88.5512 117.05C89.0795 117.841 90.2194 117.902 90.829 117.172L91.6027 116.245C91.7763 116.037 92.0043 115.882 92.2613 115.796V115.796C92.8398 115.604 93.477 115.792 93.8584 116.268L93.9272 116.353C94.5205 117.094 94.3514 118.183 93.5616 118.709L92.4093 119.475C91.5204 120.067 91.0288 121.075 91.1351 122.138C94.6366 157.14 100.877 225.911 99.0985 234.074M86.8974 110.967C90.1286 112.253 93.4045 113.454 96.7178 114.574M99.0985 234.074L101.439 287.792C101.672 293.149 104.387 298.142 109.04 300.808V300.808M99.0985 234.074C102.578 235.504 106.673 236.994 111.3 238.466M277.596 232.27L273.412 286.163C272.914 292.574 269.577 298.489 264.039 301.755V301.755M277.596 232.27V232.27C282.579 230.613 282.917 224.239 283.598 219.031C287.402 189.944 292.965 145.172 294.511 125.101C295.027 118.402 294.205 109.995 287.537 109.163V109.163M277.596 232.27C276.248 232.89 274.896 233.491 273.541 234.074M287.537 109.163L292.508 55.8867M287.537 109.163L286.816 113.24C286.745 113.644 287.319 113.801 287.464 113.418V113.418C287.509 113.297 287.619 113.212 287.747 113.207C289.034 113.162 288.913 114.016 287.537 113.672C286.429 113.396 287.904 112.308 288.789 111.746C289.139 111.524 289.565 111.491 289.958 111.622V111.622C290.426 111.777 290.792 112.144 290.948 112.611L291.152 113.222L291.706 115.707C291.898 116.57 291.343 117.422 290.476 117.595L290.039 117.683C288.98 117.894 288.118 116.83 288.544 115.837L288.86 115.101C288.88 115.055 288.926 115.025 288.976 115.025V115.025C289.128 115.025 289.149 115.245 289 115.274L285.829 115.907C285.764 115.92 285.702 115.948 285.649 115.988L283.922 117.28M292.508 55.8867C290.929 56.244 289.272 56.5996 287.537 56.9515M283.922 117.28C281.911 155.61 277.02 232.631 273.541 234.074M283.922 117.28C282.195 117.727 280.348 118.179 278.388 118.633M273.541 234.074C270.688 235.301 267.82 236.447 264.943 237.516M264.943 237.516L272.625 119.9M264.943 237.516C260.145 239.297 255.319 240.863 250.482 242.232M272.625 119.9C273.081 119.805 273.533 119.709 273.981 119.613M272.625 119.9C271.45 120.145 270.245 120.39 269.01 120.633M257.261 122.736L250.482 242.232M257.261 122.736C252.973 123.432 248.442 124.093 243.704 124.699M257.261 122.736C259.115 122.435 260.923 122.128 262.683 121.815M250.482 242.232C246.72 243.296 242.951 244.241 239.185 245.074M243.704 124.699L239.185 245.074M243.704 124.699C239.632 125.22 235.406 125.7 231.051 126.127M239.185 245.074C235.414 245.908 231.645 246.631 227.888 247.25M231.051 126.127L227.888 247.25M231.051 126.127C226.372 126.585 221.542 126.982 216.59 127.3M227.888 247.25C223.195 248.022 218.52 248.634 213.879 249.099M216.59 127.3L213.879 249.099M216.59 127.3C212.889 127.538 209.119 127.733 205.293 127.877M213.879 249.099C211.002 249.388 208.139 249.62 205.293 249.801M205.293 127.877V249.801M205.293 127.877C199.387 128.1 193.347 128.203 187.217 128.161M205.293 249.801C199.174 250.188 193.136 250.335 187.217 250.277M187.217 128.161V250.277M187.217 128.161C181.854 128.125 176.422 127.978 170.949 127.704M187.217 250.277C182.663 250.233 178.18 250.069 173.787 249.801M170.949 127.704L173.787 249.801M170.949 127.704C167.05 127.509 163.13 127.249 159.2 126.919M173.787 249.801C169.905 249.564 166.093 249.246 162.363 248.859M159.2 126.919L162.363 248.859M159.2 126.919C154.238 126.502 149.26 125.972 144.288 125.318M162.363 248.859C157.385 248.343 152.555 247.705 147.903 246.971M144.288 125.318L147.903 246.971M144.288 125.318C140.515 124.822 136.746 124.253 132.99 123.608M147.903 246.971C144.235 246.393 140.678 245.756 137.246 245.074M132.99 123.608L137.246 245.074M132.99 123.608C128.295 122.802 123.619 121.876 118.982 120.818M137.246 245.074C132.807 244.192 128.578 243.234 124.59 242.232M118.982 120.818L124.59 242.232M118.982 120.818C117.925 120.578 116.871 120.33 115.818 120.076M124.59 242.232C119.791 241.025 115.342 239.752 111.3 238.466M103.165 116.639L111.3 238.466M103.165 116.639C101.922 116.262 100.682 115.875 99.4477 115.476M103.165 116.639C104.402 117.014 105.643 117.377 106.888 117.731M91.8682 83.4593L87.8012 55.2653M91.8682 83.4593V55.9012M91.8682 83.4593C90.0606 72.6366 87.9819 52.5246 94.1277 58.6574C98.597 63.1174 98.2388 62.4419 96.8418 60.7588C96.3257 60.137 95.3384 60.5975 95.4647 61.3956V61.3956C95.6116 62.3237 97.1902 62.3278 97.43 61.4192C98.0835 58.943 98.9691 57.214 100.002 58.6574C101.388 60.5933 103.924 61.0628 105.779 61.0411C106.54 61.0321 107.233 61.6124 107.233 62.3734V62.3734C107.233 63.6913 109.033 64.073 109.568 62.8685L111.437 58.6574M87.8012 55.2653C89.1617 55.4816 90.5174 55.6936 91.8682 55.9012M91.8682 55.9012C98.5116 56.9223 105.036 57.8387 111.437 58.6574M111.437 58.6574C180.103 67.4398 234.61 64.9843 269.914 59.9574M98.1947 23.9348L92.772 41.0377M92.772 41.0377C96.865 41.624 100.933 42.167 104.973 42.6687M108.588 32.9537L104.973 42.6687M104.973 42.6687C121.659 44.7413 137.861 46.1114 153.325 46.9336M112.203 21.2291L109.944 12.3653M112.203 21.2291L115.367 12.6471M112.203 21.2291L112.655 12.5062M109.944 12.3653L112.655 12.5062M115.367 12.6471L112.655 12.5062M153.325 46.9336C153.476 44.8289 154.229 40.3491 156.037 39.2669M153.325 46.9336C176.686 48.1755 198.366 48.1671 217.494 47.4405M156.037 39.2669C157.415 38.4419 157.655 41.5827 157.558 44.4543C157.527 45.363 156.407 45.7036 155.838 44.9941V44.9941C155.676 44.7912 155.597 44.5338 155.619 44.2748L156.037 39.2669ZM217.494 47.4405C217.946 44.5656 219.211 38.9963 220.657 39.7178M217.494 47.4405C218.404 47.406 219.307 47.3698 220.205 47.3321M220.657 39.7178C221.679 40.2277 222.16 42.5697 222.353 44.6423C222.477 45.9637 221.512 47.1012 220.205 47.3321V47.3321M220.657 39.7178L220.205 47.3321M282.566 41.2691L278.499 24.8367M287.537 56.9515C287.537 57.3065 287.535 57.6595 287.53 58.0105C287.46 63.3062 284.382 62.7638 284.826 57.4862V57.4862M287.537 56.9515C286.654 57.1308 285.75 57.3091 284.826 57.4862M287.537 56.9515L284.826 57.4862M284.826 57.4862C283.228 57.7925 281.571 58.0952 279.855 58.3927M279.855 58.3927C279.855 63.1407 279.765 71.8249 279.403 68.5782C279.042 65.3314 277.445 60.7895 276.692 58.9244M279.855 58.3927C278.822 58.5719 277.767 58.7492 276.692 58.9244M276.692 58.9244C274.518 59.2784 272.258 59.6236 269.914 59.9574M269.914 59.9574C269.914 63.4322 269.642 70.1114 268.558 69.0291C267.473 67.9468 267.202 62.8662 267.202 60.4612M273.981 119.613C274.432 112.522 275.607 98.7011 276.692 100.144M273.981 119.613C274.805 119.437 275.613 119.26 276.404 119.084M276.692 100.144C277.776 101.587 278.275 113.071 278.388 118.633M276.692 100.144L276.404 119.084M278.388 118.633C277.739 118.783 277.078 118.933 276.404 119.084M259.52 122.24C259.52 118.182 259.791 110.426 260.876 111.869C261.96 113.312 262.533 119.101 262.683 121.815M262.683 121.815C263.292 121.707 263.894 121.599 264.491 121.49M264.491 121.49C264.792 116.178 265.575 106.097 266.298 108.261M264.491 121.49C265.254 121.35 266.007 121.21 266.75 121.069M266.298 108.261C267.021 110.426 268.407 117.411 269.01 120.633M266.298 108.261L266.75 121.069M269.01 120.633C268.267 120.779 267.514 120.925 266.75 121.069M109.04 300.808C109.793 286.831 111.3 259.598 111.3 262.484C111.3 265.37 111.3 290.079 111.3 302.073M109.04 300.808C109.775 301.229 110.528 301.651 111.3 302.073M111.3 302.073C113.02 303.014 114.829 303.955 116.722 304.887M116.722 304.887C117.325 297.367 118.62 283.317 118.982 287.285C119.343 291.254 119.735 301.682 119.885 306.4M116.722 304.887C117.752 305.395 118.807 305.9 119.885 306.4M119.885 306.4C122.327 307.534 124.891 308.648 127.568 309.727M127.568 309.727C128.17 304.802 129.375 295.312 129.375 296.755C129.375 298.198 129.978 306.714 130.279 310.792M127.568 309.727C128.459 310.086 129.363 310.441 130.279 310.792M130.279 310.792C159.611 322.023 201.377 328.633 243.704 311.753M243.704 311.753C244.306 306.303 245.511 295.763 245.511 297.206C245.511 298.649 246.415 306.635 246.867 310.448M243.704 311.753C244.758 311.332 245.812 310.897 246.867 310.448M246.867 310.448C249.729 309.227 252.592 307.897 255.453 306.451M255.453 306.451C255.905 299.912 256.809 287.376 256.809 289.54C256.809 291.705 257.411 300.939 257.712 305.285M255.453 306.451C256.206 306.071 256.96 305.682 257.712 305.285M257.712 305.285C258.798 304.714 259.882 304.125 260.966 303.519M260.966 303.519C262.292 283.828 264.943 248.955 264.943 266.993C264.943 285.031 264.34 297.683 264.039 301.755M260.966 303.519C261.991 302.947 263.015 302.359 264.039 301.755M96.7178 114.574C97.0595 109.464 97.8332 99.6932 98.1947 101.497C98.5562 103.301 99.1807 111.568 99.4477 115.476M96.7178 114.574C97.625 114.881 98.5351 115.182 99.4477 115.476M106.888 117.731C107.756 113.222 109.402 105.555 109.04 110.967C109.028 111.145 109.018 111.314 109.011 111.473C108.813 115.674 115.748 109.033 115.367 113.222V113.222C115.005 117.19 115.517 119.444 115.818 120.076M106.888 117.731C109.843 118.57 112.822 119.351 115.818 120.076M109.04 116.378C110.396 116.679 113.197 117.28 113.559 117.28C113.919 117.28 113.412 113.997 113.11 112.338C113.108 112.325 113.107 112.313 113.107 112.301V112.301C113.107 112.08 112.818 112.014 112.726 112.214C112.276 113.192 111.751 114.475 111.751 115.025C111.751 115.747 109.341 116.228 108.136 116.378" stroke="#444A4A" stroke-width="4"/>
</svg>
